<?xml version="1.0" encoding="UTF-8" standalone="no"?>
<!-- Created with Inkscape (http://www.inkscape.org/) -->

<svg
   xmlns:dc="http://purl.org/dc/elements/1.1/"
   xmlns:cc="http://creativecommons.org/ns#"
   xmlns:rdf="http://www.w3.org/1999/02/22-rdf-syntax-ns#"
   xmlns:svg="http://www.w3.org/2000/svg"
   xmlns="http://www.w3.org/2000/svg"
   xmlns:sodipodi="http://sodipodi.sourceforge.net/DTD/sodipodi-0.dtd"
   xmlns:inkscape="http://www.inkscape.org/namespaces/inkscape"
   width="800"
   height="800"
   id="svg2"
   version="1.1"
   inkscape:version="0.48.3.1 r9886"
   sodipodi:docname="logo-plain.svg"
   inkscape:export-filename="/home/zora/Téléchargements/rubynord/logo-plain-reverse.png"
   inkscape:export-xdpi="90"
   inkscape:export-ydpi="90">
  <defs
     id="defs4">
    <inkscape:perspective
       id="perspective6636"
       inkscape:persp3d-origin="372.04724 : 350.78739 : 1"
       inkscape:vp_z="744.09448 : 526.18109 : 1"
       inkscape:vp_y="0 : 1000 : 0"
       inkscape:vp_x="0 : 526.18109 : 1"
       sodipodi:type="inkscape:persp3d" />
  </defs>
  <sodipodi:namedview
     id="base"
     pagecolor="#ffffff"
     bordercolor="#666666"
     borderopacity="1.0"
     inkscape:pageopacity="1"
     inkscape:pageshadow="2"
     inkscape:zoom="0.35355339"
     inkscape:cx="430.68047"
     inkscape:cy="324.34909"
     inkscape:document-units="px"
     inkscape:current-layer="layer1"
     showgrid="false"
     inkscape:window-width="1280"
     inkscape:window-height="754"
     inkscape:window-x="0"
     inkscape:window-y="24"
     inkscape:window-maximized="1"
     showguides="true"
     inkscape:guide-bbox="true">
    <inkscape:grid
       type="xygrid"
       id="grid2996"
       empspacing="5"
       visible="true"
       enabled="true"
       snapvisiblegridlinesonly="true" />
  </sodipodi:namedview>
  <metadata
     id="metadata7">
    <rdf:RDF>
      <cc:Work
         rdf:about="">
        <dc:format>image/svg+xml</dc:format>
        <dc:type
           rdf:resource="http://purl.org/dc/dcmitype/StillImage" />
        <dc:title></dc:title>
      </cc:Work>
    </rdf:RDF>
  </metadata>
  <g
     inkscape:groupmode="layer"
     id="layer1"
     inkscape:label="logo blanc"
     style="display:inline">
    <rect
       style="fill:#ee1c25;fill-opacity:1;stroke:none;display:inline"
       id="rect3005"
       width="800"
       height="800"
       x="0"
       y="0" />
    <path
       inkscape:connector-curvature="0"
       id="path3014"
       d="m 255.84375,310.82812 -144.15625,144.15625 269.46875,0 0,-144.15625 -125.3125,0 z m 251.84375,0 0,144.15625 180.625,0 -144.15625,-144.15625 -36.46875,0 z"
       style="opacity:0.4;fill:#ffffff;fill-opacity:1;stroke:none" />
    <path
       inkscape:connector-curvature="0"
       id="path3016"
       d="m 255.84375,310.82812 125.3125,125.3125 0,-125.3125 -125.3125,0 z m 251.84375,0 0,36.46875 36.46875,-36.46875 -36.46875,0 z"
       style="opacity:0.55;fill:#ffffff;fill-opacity:1;stroke:none" />
    <path
       inkscape:connector-curvature="0"
       id="path3018"
       d="M 111.6875,454.98437 400,743.29687 l 288.3125,-288.3125 -180.625,0 0,10.6875 c 0,21.95212 -17.46875,40.65625 -17.46875,40.65625 -28.93867,30.86991 -62.95319,57.91262 -82.40625,72.8125 -7.1669,5.48774 -10.74723,7.54496 -14.8125,8.09375 -6.50129,0.87829 -11.84375,-4.00667 -11.84375,-9.90625 l 0,-122.34375 -269.46875,0 z"
       style="opacity:0.5;fill:#ffffff;fill-opacity:1;stroke:none" />
    <path
       inkscape:connector-curvature="0"
       id="path3022"
       d="m 381.15625,475.54687 -74.4375,81.1875 93.28125,185 101.75,-189.25 -29.375,-28.15625 c -24.14416,23.20039 -49.0042,42.89577 -64.5625,54.8125 -7.1669,5.48774 -10.74723,7.54496 -14.8125,8.09375 -6.50129,0.87829 -11.84375,-4.00667 -11.84375,-9.90625 l 0,-101.78125 z"
       style="opacity:0;fill:#ffffff;fill-opacity:1;stroke:none" />
    <path
       inkscape:connector-curvature="0"
       id="path3024"
       d="m 381.15625,329.67187 -125.3125,125.3125 125.3125,0 0,-125.3125 z m 126.53125,82.875 0,42.4375 44.9375,0 -44.9375,-42.4375 z"
       style="opacity:0.85;fill:#ffffff;fill-opacity:1;stroke:none" />
    <path
       inkscape:connector-curvature="0"
       d="m 444.42218,234.41011 c -11.12486,0 -20.21224,-9.0375 -20.21224,-20.26784 0,-11.12507 9.08738,-20.13574 20.21224,-20.13574 11.17771,0 20.26784,9.01067 20.26784,20.13574 0,11.23034 -9.09013,20.26784 -20.26784,20.26784 z m 54.67297,-101.20732 c -7.7689,0 -11.4392,17.78455 -14.42796,16.35719 -3.09171,-1.42694 -25.8699,-92.856855 -40.1393,-92.856855 -14.24299,0 -36.6221,91.429915 -40.16574,92.856855 -2.9596,1.21553 -6.63264,-16.35719 -14.40155,-16.35719 -9.40724,0 -17.01484,18.92039 -17.01484,37.28564 0,12.39326 -0.12679,48.06678 -0.12679,72.21908 0,24.12568 16.08996,34.32585 16.08996,61.06779 l 0,263.93123 c 0,5.68133 4.67996,10.38495 10.38497,9.53914 3.56736,-0.52849 6.71192,-2.51038 13.00102,-7.79511 17.07045,-14.34869 46.93051,-40.40358 72.32476,-70.13152 0,0 15.3264,-17.99531 15.3264,-39.13537 l 0,-156.40838 c 0,-26.74194 16.11915,-36.94211 16.11915,-61.06778 0,-24.1523 0.0422,-59.82582 0.0422,-72.21908 0,-18.15406 -8.2974,-37.28563 -17.01759,-37.28563"
       style="fill:#ffffff;fill-opacity:1;fill-rule:nonzero;stroke:none;display:inline"
       id="path3026" />
    <path
       inkscape:connector-curvature="0"
       id="path3020"
       d="M 255.84375,454.98437 400,743.29687 l 152.625,-288.3125 -44.9375,0 0,10.6875 c 0,21.95212 -17.46875,40.65625 -17.46875,40.65625 -28.93867,30.86991 -62.95319,57.91262 -82.40625,72.8125 -7.1669,5.48774 -10.74723,7.54496 -14.8125,8.09375 -6.50129,0.87829 -11.84375,-4.00667 -11.84375,-9.90625 l 0,-122.34375 -125.3125,0 z"
       style="opacity:0.52999998;fill:#ffffff;fill-opacity:1;stroke:none" />
    <path
       inkscape:connector-curvature="0"
       id="path3844"
       d="m 381.15625,475.54687 -74.4375,81.1875 93.28125,185 101.75,-189.25 -29.375,-28.15625 c -24.14416,23.20039 -49.0042,42.89577 -64.5625,54.8125 -7.1669,5.48774 -10.74723,7.54496 -14.8125,8.09375 -6.50129,0.87829 -11.84375,-4.00667 -11.84375,-9.90625 l 0,-101.78125 z"
       style="opacity:0.4;fill:#ffffff;fill-opacity:1;stroke:none;display:inline" />
  </g>
  <g
     inkscape:groupmode="layer"
     id="layer2"
     inkscape:label="logo (plein)"
     style="display:none">
    <rect
       y="0"
       x="0"
       height="800"
       width="800"
       id="rect3868"
       style="fill:#ffffff;fill-opacity:1;stroke:none;display:inline" />
    <g
       id="g3824"
       transform="matrix(0.84795321,0,0,0.84795321,60.818716,83.406771)">
      <path
         sodipodi:nodetypes="ccccc"
         inkscape:connector-curvature="0"
         id="path3031"
         d="m 60,430 170,-170 340,0 170,170 z"
         style="fill:#c03b2b;fill-opacity:1;stroke:none" />
      <path
         inkscape:connector-curvature="0"
         id="path3035"
         d="M 230,260 400,430 570,260 z"
         style="fill:#e64c3c;fill-opacity:1;stroke:none" />
      <path
         inkscape:connector-curvature="0"
         id="path3037"
         d="M 60,430 400,770 740,430 z"
         style="fill:#ee6c5e;fill-opacity:1;stroke:none" />
      <path
         inkscape:connector-curvature="0"
         id="path3039"
         d="M 230,430 400,770 580,430 z"
         style="fill:#e64c3c;fill-opacity:1;stroke:none" />
      <path
         sodipodi:nodetypes="ccccc"
         inkscape:connector-curvature="0"
         id="path3041"
         d="M 290,550 400,430 520,545 400,768.18019 z"
         style="fill:#c03b2b;fill-opacity:1;stroke:none" />
      <path
         inkscape:connector-curvature="0"
         id="path3033"
         d="m 230,430 c 56.66667,-56.66667 113.33333,-113.33333 170,-170 60,56.66667 120,113.33333 180,170 -116.66667,0 -233.33333,0 -350,0 z"
         style="opacity:0.6535088;fill:#ee6c5e;fill-opacity:1;stroke:none" />
    </g>
  </g>
  <g
     inkscape:groupmode="layer"
     id="layer3"
     inkscape:label="logo (extrude)"
     style="display:none">
    <rect
       style="fill:#ffffff;fill-opacity:1;stroke:none;display:inline"
       id="rect3871"
       width="800"
       height="800"
       x="0"
       y="0" />
    <g
       id="g3858">
      <g
         id="g3850">
        <path
           style="fill:#c03b2b;fill-opacity:1;stroke:none"
           d="m 255.84375,310.82812 -144.15625,144.15625 269.46875,0 0,-144.15625 -125.3125,0 z m 251.84375,0 0,144.15625 180.625,0 -144.15625,-144.15625 -36.46875,0 z"
           id="path3950"
           inkscape:connector-curvature="0" />
        <path
           style="fill:#e64c3c;fill-opacity:1;stroke:none"
           d="m 255.84375,310.82812 125.3125,125.3125 0,-125.3125 -125.3125,0 z m 251.84375,0 0,36.46875 36.46875,-36.46875 -36.46875,0 z"
           id="path3952"
           inkscape:connector-curvature="0" />
        <path
           style="fill:#ee6c5e;fill-opacity:1;stroke:none"
           d="M 111.6875,454.98437 400,743.29687 l 288.3125,-288.3125 -180.625,0 0,10.6875 c 0,21.95212 -17.46875,40.65625 -17.46875,40.65625 -28.93867,30.86991 -62.95319,57.91262 -82.40625,72.8125 -7.1669,5.48774 -10.74723,7.54496 -14.8125,8.09375 -6.50129,0.87829 -11.84375,-4.00667 -11.84375,-9.90625 l 0,-122.34375 -269.46875,0 z"
           id="path3954"
           inkscape:connector-curvature="0" />
        <path
           style="fill:#e64c3c;fill-opacity:1;stroke:none"
           d="M 255.84375,454.98437 400,743.29687 l 152.625,-288.3125 -44.9375,0 0,10.6875 c 0,21.95212 -17.46875,40.65625 -17.46875,40.65625 -28.93867,30.86991 -62.95319,57.91262 -82.40625,72.8125 -7.1669,5.48774 -10.74723,7.54496 -14.8125,8.09375 -6.50129,0.87829 -11.84375,-4.00667 -11.84375,-9.90625 l 0,-122.34375 -125.3125,0 z"
           id="path3956"
           inkscape:connector-curvature="0" />
        <path
           style="fill:#c03b2b;fill-opacity:1;stroke:none"
           d="m 381.15625,475.54687 -74.4375,81.1875 93.28125,185 101.75,-189.25 -29.375,-28.15625 c -24.14416,23.20039 -49.0042,42.89577 -64.5625,54.8125 -7.1669,5.48774 -10.74723,7.54496 -14.8125,8.09375 -6.50129,0.87829 -11.84375,-4.00667 -11.84375,-9.90625 l 0,-101.78125 z"
           id="path3958"
           inkscape:connector-curvature="0" />
        <path
           style="opacity:0.6535088;fill:#ee6c5e;fill-opacity:1;stroke:none"
           d="m 381.15625,329.67187 -125.3125,125.3125 125.3125,0 0,-125.3125 z m 126.53125,82.875 0,42.4375 44.9375,0 -44.9375,-42.4375 z"
           id="path3960"
           inkscape:connector-curvature="0" />
      </g>
      <path
         inkscape:connector-curvature="0"
         d="m 444.42218,234.41011 c -11.12486,0 -20.21224,-9.0375 -20.21224,-20.26784 0,-11.12507 9.08738,-20.13574 20.21224,-20.13574 11.17771,0 20.26784,9.01067 20.26784,20.13574 0,11.23034 -9.09013,20.26784 -20.26784,20.26784 z m 54.67297,-101.20732 c -7.7689,0 -11.4392,17.78455 -14.42796,16.35719 -3.09171,-1.42694 -25.8699,-92.856855 -40.1393,-92.856855 -14.24299,0 -36.6221,91.429915 -40.16574,92.856855 -2.9596,1.21553 -6.63264,-16.35719 -14.40155,-16.35719 -9.40724,0 -17.01484,18.92039 -17.01484,37.28564 0,12.39326 -0.12679,48.06678 -0.12679,72.21908 0,24.12568 16.08996,34.32585 16.08996,61.06779 l 0,263.93123 c 0,5.68133 4.67996,10.38495 10.38497,9.53914 3.56736,-0.52849 6.71192,-2.51038 13.00102,-7.79511 17.07045,-14.34869 46.93051,-40.40358 72.32476,-70.13152 0,0 15.3264,-17.99531 15.3264,-39.13537 l 0,-156.40838 c 0,-26.74194 16.11915,-36.94211 16.11915,-61.06778 0,-24.1523 0.0422,-59.82582 0.0422,-72.21908 0,-18.15406 -8.2974,-37.28563 -17.01759,-37.28563"
         style="fill:#c02e1c;fill-opacity:1;fill-rule:nonzero;stroke:none;display:inline"
         id="path3849" />
    </g>
  </g>
</svg>
