<?xml version="1.0" encoding="UTF-8" standalone="no"?>
<!-- Created with Inkscape (http://www.inkscape.org/) -->

<svg
   xmlns:dc="http://purl.org/dc/elements/1.1/"
   xmlns:cc="http://creativecommons.org/ns#"
   xmlns:rdf="http://www.w3.org/1999/02/22-rdf-syntax-ns#"
   xmlns:svg="http://www.w3.org/2000/svg"
   xmlns="http://www.w3.org/2000/svg"
   xmlns:sodipodi="http://sodipodi.sourceforge.net/DTD/sodipodi-0.dtd"
   xmlns:inkscape="http://www.inkscape.org/namespaces/inkscape"
   width="800"
   height="800"
   id="svg2"
   version="1.1"
   inkscape:version="0.48.3.1 r9886"
   sodipodi:docname="logo-wireframe.svg"
   inkscape:export-filename="/home/zora/Téléchargements/rubynord/logo-wireframe-white.png"
   inkscape:export-xdpi="90"
   inkscape:export-ydpi="90">
  <defs
     id="defs4">
    <inkscape:perspective
       id="perspective6636"
       inkscape:persp3d-origin="372.04724 : 350.78739 : 1"
       inkscape:vp_z="744.09448 : 526.18109 : 1"
       inkscape:vp_y="0 : 1000 : 0"
       inkscape:vp_x="0 : 526.18109 : 1"
       sodipodi:type="inkscape:persp3d" />
  </defs>
  <sodipodi:namedview
     id="base"
     pagecolor="#ffffff"
     bordercolor="#666666"
     borderopacity="1.0"
     inkscape:pageopacity="1"
     inkscape:pageshadow="2"
     inkscape:zoom="0.5"
     inkscape:cx="377.57135"
     inkscape:cy="320.57748"
     inkscape:document-units="px"
     inkscape:current-layer="layer1"
     showgrid="false"
     inkscape:window-width="1280"
     inkscape:window-height="754"
     inkscape:window-x="0"
     inkscape:window-y="24"
     inkscape:window-maximized="1"
     showguides="true"
     inkscape:guide-bbox="true">
    <inkscape:grid
       type="xygrid"
       id="grid2996"
       empspacing="5"
       visible="true"
       enabled="true"
       snapvisiblegridlinesonly="true" />
  </sodipodi:namedview>
  <metadata
     id="metadata7">
    <rdf:RDF>
      <cc:Work
         rdf:about="">
        <dc:format>image/svg+xml</dc:format>
        <dc:type
           rdf:resource="http://purl.org/dc/dcmitype/StillImage" />
        <dc:title></dc:title>
      </cc:Work>
    </rdf:RDF>
  </metadata>
  <g
     inkscape:groupmode="layer"
     id="layer1"
     inkscape:label="logo blanc"
     style="display:inline">
    <rect
       style="fill:#ee1c25;fill-opacity:1;stroke:none;display:inline"
       id="rect3006"
       width="800"
       height="800"
       x="0"
       y="0" />
    <g
       id="g3816">
      <g
         id="g3806">
        <path
           style="fill:#ffffff;fill-opacity:1;stroke:#ffffff;stroke-width:4.41955852999999976;stroke-linecap:butt;stroke-linejoin:round;stroke-miterlimit:4;stroke-opacity:1;stroke-dasharray:none;display:inline"
           d="m 218.79811,306.08438 159.1041,0 -103.85962,114.90852 z"
           id="path3782"
           inkscape:connector-curvature="0"
           sodipodi:nodetypes="cccc" />
        <path
           style="fill:#ffffff;fill-opacity:1;stroke:#ffffff;stroke-width:4.41955852999999976;stroke-linecap:butt;stroke-linejoin:round;stroke-miterlimit:4;stroke-opacity:1;stroke-dasharray:none;display:inline"
           d="m 201.11987,310.50394 57.45426,119.32808 -141.42586,0 z"
           id="path3784"
           inkscape:connector-curvature="0"
           sodipodi:nodetypes="cccc" />
        <path
           style="fill:#ffffff;fill-opacity:1;stroke:#ffffff;stroke-width:4.41955852999999976;stroke-linecap:butt;stroke-linejoin:round;stroke-miterlimit:4;stroke-opacity:1;stroke-dasharray:none;display:inline"
           d="m 117.14827,447.51025 150.26498,0 110.48896,278.43218 z"
           id="path3786"
           inkscape:connector-curvature="0"
           sodipodi:nodetypes="cccc" />
        <path
           style="fill:#ffffff;fill-opacity:1;stroke:#ffffff;stroke-width:4.41955852999999976;stroke-linecap:butt;stroke-linejoin:round;stroke-miterlimit:4;stroke-opacity:1;stroke-dasharray:none;display:inline"
           d="m 598.88013,310.50394 83.9716,119.32808 -141.42586,0 z"
           id="path3788"
           inkscape:connector-curvature="0"
           sodipodi:nodetypes="cccc" />
        <path
           style="fill:#ffffff;fill-opacity:1;stroke:#ffffff;stroke-width:4.41955852999999976;stroke-linecap:butt;stroke-linejoin:round;stroke-miterlimit:4;stroke-opacity:1;stroke-dasharray:none;display:inline"
           d="m 532.58675,447.51025 150.26498,0 -260.75394,278.43218 z"
           id="path3790"
           inkscape:connector-curvature="0"
           sodipodi:nodetypes="cccc" />
        <path
           inkscape:connector-curvature="0"
           id="path3792"
           d="m 513.63789,306.08438 0,101.51174 12.31952,13.39678 53.47666,-114.90852 -65.79618,0 z"
           style="fill:#ffffff;fill-opacity:1;stroke:#ffffff;stroke-width:4.41955852999999976;stroke-linecap:butt;stroke-linejoin:round;stroke-miterlimit:4;stroke-opacity:1;stroke-dasharray:none;display:inline" />
        <path
           inkscape:connector-curvature="0"
           id="path3794"
           d="m 375.19523,333.48565 -85.68419,96.34637 85.68419,0 0,-96.34637 z"
           style="fill:#ffffff;fill-opacity:1;stroke:#ffffff;stroke-width:4.41955852999999976;stroke-linecap:butt;stroke-linejoin:round;stroke-miterlimit:4;stroke-opacity:1;stroke-dasharray:none;display:inline" />
        <path
           inkscape:connector-curvature="0"
           id="path3796"
           d="M 285.09148,447.51025 399.55804,748.04022 491.7887,507.75436 c -31.04779,30.66402 -66.7498,57.40598 -87.42439,72.31502 -7.84094,5.65259 -11.76665,7.77664 -16.21425,8.34192 -7.11272,0.90467 -12.95483,-4.14344 -12.95483,-10.22023 l 0,-130.68082 -90.10375,0 z m 228.54641,0 0,3.31467 1.27063,-3.31467 -1.27063,0 z"
           style="fill:#ffffff;fill-opacity:1;stroke:#ffffff;stroke-width:4.41955852999999976;stroke-linecap:butt;stroke-linejoin:round;stroke-miterlimit:4;stroke-opacity:1;stroke-dasharray:none" />
      </g>
      <path
         inkscape:connector-curvature="0"
         d="m 444.42218,227.45699 c -11.12486,0 -20.21224,-9.0375 -20.21224,-20.26784 0,-11.12507 9.08738,-20.13574 20.21224,-20.13574 11.17771,0 20.26784,9.01067 20.26784,20.13574 0,11.23034 -9.09013,20.26784 -20.26784,20.26784 z m 54.67297,-101.20732 c -7.7689,0 -11.4392,17.78455 -14.42796,16.35719 -3.09171,-1.42694 -25.8699,-92.85686 -40.1393,-92.85686 -14.24299,0 -36.6221,91.42992 -40.16574,92.85686 -2.9596,1.21553 -6.63264,-16.35719 -14.40155,-16.35719 -9.40724,0 -17.01484,18.92039 -17.01484,37.28564 0,12.39326 -0.12679,48.06678 -0.12679,72.21908 0,24.12567 16.08996,34.32584 16.08996,61.06778 l 0,263.93123 c 0,5.68133 4.67996,10.38495 10.38497,9.53915 3.56736,-0.52849 6.71192,-2.51038 13.00102,-7.79511 17.07045,-14.34869 46.93051,-40.40358 72.32476,-70.13152 0,0 15.3264,-17.99531 15.3264,-39.13537 l 0,-156.40838 c 0,-26.74194 16.11915,-36.94211 16.11915,-61.06778 0,-24.1523 0.0422,-59.82582 0.0422,-72.21908 0,-18.15406 -8.2974,-37.28563 -17.01759,-37.28563"
         style="fill:#ffffff;fill-opacity:1;fill-rule:nonzero;stroke:none;display:inline"
         id="path3798" />
    </g>
  </g>
  <g
     inkscape:groupmode="layer"
     id="layer3"
     inkscape:label="logo (plein)"
     style="display:none">
    <rect
       y="0"
       x="0"
       height="800"
       width="800"
       id="rect3844"
       style="fill:#ffffff;fill-opacity:1;stroke:none;display:inline" />
    <g
       id="g3834"
       transform="matrix(0.88392248,0,0,0.88392248,33.172171,40.902209)">
      <path
         sodipodi:nodetypes="cccc"
         inkscape:connector-curvature="0"
         id="path3773"
         d="m 210,300 180,0 -117.5,130 z"
         style="fill:#d01f2f;fill-opacity:1;stroke:#d01f2f;stroke-width:5;stroke-linecap:butt;stroke-linejoin:round;stroke-miterlimit:4;stroke-opacity:1;stroke-dasharray:none;display:inline" />
      <path
         sodipodi:nodetypes="cccc"
         inkscape:connector-curvature="0"
         id="path3775"
         d="m 190,305 65,135 -160,0 z"
         style="fill:#d12030;fill-opacity:1;stroke:#d12030;stroke-width:5;stroke-linecap:butt;stroke-linejoin:round;stroke-miterlimit:4;stroke-opacity:1;stroke-dasharray:none;display:inline" />
      <path
         sodipodi:nodetypes="cccc"
         inkscape:connector-curvature="0"
         id="path3777"
         d="m 95,460 170,0 125,315 z"
         style="fill:#d01f2f;fill-opacity:1;stroke:#d01f2f;stroke-width:5;stroke-linecap:butt;stroke-linejoin:round;stroke-miterlimit:4;stroke-opacity:1;stroke-dasharray:none;display:inline" />
      <path
         sodipodi:nodetypes="cccc"
         inkscape:connector-curvature="0"
         id="path3779"
         d="m 640,305 95,135 -160,0 z"
         style="fill:#ef483f;fill-opacity:1;stroke:#ef483f;stroke-width:5;stroke-linecap:butt;stroke-linejoin:round;stroke-miterlimit:4;stroke-opacity:1;stroke-dasharray:none;display:inline" />
      <path
         sodipodi:nodetypes="cccc"
         inkscape:connector-curvature="0"
         id="path3781"
         d="m 565,460 170,0 -295,315 z"
         style="fill:#ef473e;fill-opacity:1;stroke:#ef473e;stroke-width:5;stroke-linecap:butt;stroke-linejoin:round;stroke-miterlimit:4;stroke-opacity:1;stroke-dasharray:none;display:inline" />
      <path
         style="fill:#ef473e;fill-opacity:1;stroke:#ef473e;stroke-width:5;stroke-linecap:butt;stroke-linejoin:round;stroke-miterlimit:4;stroke-opacity:1;stroke-dasharray:none;display:inline"
         d="m 618,300 -180,0 119.5,130 z"
         id="path3783"
         inkscape:connector-curvature="0"
         sodipodi:nodetypes="cccc" />
      <path
         sodipodi:nodetypes="cccc"
         inkscape:connector-curvature="0"
         id="path3785"
         d="M 540,440 290,440 414.5,300 z"
         style="fill:#eb1c2e;fill-opacity:1;stroke:#eb1c2e;stroke-width:5;stroke-linecap:butt;stroke-linejoin:round;stroke-miterlimit:4;stroke-opacity:1;stroke-dasharray:none;display:inline" />
      <path
         sodipodi:nodetypes="cccc"
         inkscape:connector-curvature="0"
         id="path3787"
         d="m 285,460 260,0 -130.5,340 z"
         style="fill:#eb1c2e;fill-opacity:1;stroke:#eb1c2e;stroke-width:5;stroke-linecap:butt;stroke-linejoin:round;stroke-miterlimit:4;stroke-opacity:1;stroke-dasharray:none" />
    </g>
  </g>
  <g
     inkscape:groupmode="layer"
     id="layer10"
     inkscape:label="logo (extrude)"
     style="display:none">
    <rect
       style="fill:#ffffff;fill-opacity:1;stroke:none;display:inline"
       id="rect3847"
       width="800"
       height="800"
       x="0"
       y="0" />
    <g
       id="g4196"
       transform="matrix(0.88391167,0,0,0.88391167,46.435332,64.113565)">
      <g
         id="g4177">
        <path
           sodipodi:nodetypes="cccc"
           inkscape:connector-curvature="0"
           id="path4134"
           d="m 195,273.75 180,0 -117.5,130 z"
           style="fill:#d01f2f;fill-opacity:1;stroke:#d01f2f;stroke-width:5;stroke-linecap:butt;stroke-linejoin:round;stroke-miterlimit:4;stroke-opacity:1;stroke-dasharray:none;display:inline" />
        <path
           sodipodi:nodetypes="cccc"
           inkscape:connector-curvature="0"
           id="path4136"
           d="m 175,278.75 65,135 -160,0 z"
           style="fill:#d12030;fill-opacity:1;stroke:#d12030;stroke-width:5;stroke-linecap:butt;stroke-linejoin:round;stroke-miterlimit:4;stroke-opacity:1;stroke-dasharray:none;display:inline" />
        <path
           sodipodi:nodetypes="cccc"
           inkscape:connector-curvature="0"
           id="path4138"
           d="m 80,433.75 170,0 125,315 z"
           style="fill:#d01f2f;fill-opacity:1;stroke:#d01f2f;stroke-width:5;stroke-linecap:butt;stroke-linejoin:round;stroke-miterlimit:4;stroke-opacity:1;stroke-dasharray:none;display:inline" />
        <path
           sodipodi:nodetypes="cccc"
           inkscape:connector-curvature="0"
           id="path4140"
           d="m 625,278.75 95,135 -160,0 z"
           style="fill:#ef483f;fill-opacity:1;stroke:#ef483f;stroke-width:5;stroke-linecap:butt;stroke-linejoin:round;stroke-miterlimit:4;stroke-opacity:1;stroke-dasharray:none;display:inline" />
        <path
           sodipodi:nodetypes="cccc"
           inkscape:connector-curvature="0"
           id="path4142"
           d="m 550,433.75 170,0 -295,315 z"
           style="fill:#ef473e;fill-opacity:1;stroke:#ef473e;stroke-width:5;stroke-linecap:butt;stroke-linejoin:round;stroke-miterlimit:4;stroke-opacity:1;stroke-dasharray:none;display:inline" />
        <path
           style="fill:#ef473e;fill-opacity:1;stroke:#ef473e;stroke-width:5;stroke-linecap:butt;stroke-linejoin:round;stroke-miterlimit:4;stroke-opacity:1;stroke-dasharray:none;display:inline"
           d="m 528.5625,273.75 0,114.84375 13.9375,15.15625 60.5,-130 -74.4375,0 z"
           id="path4144"
           inkscape:connector-curvature="0" />
        <path
           style="fill:#eb1c2e;fill-opacity:1;stroke:#eb1c2e;stroke-width:5;stroke-linecap:butt;stroke-linejoin:round;stroke-miterlimit:4;stroke-opacity:1;stroke-dasharray:none;display:inline"
           d="m 371.9375,304.75 -96.9375,109 96.9375,0 0,-109 z"
           id="path4146"
           inkscape:connector-curvature="0" />
        <path
           style="fill:#eb1c2e;fill-opacity:1;stroke:#eb1c2e;stroke-width:5;stroke-linecap:butt;stroke-linejoin:round;stroke-miterlimit:4;stroke-opacity:1;stroke-dasharray:none"
           d="m 270,433.75 129.5,340 104.34375,-271.84375 c -35.12545,34.69128 -75.51637,64.94538 -98.90625,81.8125 -8.87073,6.39497 -13.31202,8.79798 -18.34375,9.4375 -8.04687,1.02349 -14.65625,-4.68761 -14.65625,-11.5625 l 0,-147.84375 -101.9375,0 z m 258.5625,0 0,3.75 1.4375,-3.75 -1.4375,0 z"
           id="path4148"
           inkscape:connector-curvature="0" />
      </g>
      <path
         id="path4126"
         style="fill:#b62123;fill-opacity:1;fill-rule:nonzero;stroke:none;display:inline"
         d="m 450.25636,184.7961 c -12.58594,0 -22.86681,-10.22444 -22.86681,-22.92972 0,-12.58617 10.28087,-22.78026 22.86681,-22.78026 12.64573,0 22.92971,10.19409 22.92971,22.78026 0,12.70528 -10.28398,22.92972 -22.92971,22.92972 z M 512.10979,70.29674 c -8.78923,0 -12.94157,20.12028 -16.32285,18.50545 C 492.28918,87.18785 466.51942,-16.25 450.37595,-16.25 c -16.11359,0 -41.43185,103.43785 -45.4409,105.05219 -3.3483,1.37518 -7.50373,-18.50545 -16.29297,-18.50545 -10.64274,0 -19.24948,21.40529 -19.24948,42.18254 0,14.02092 -0.14344,54.37961 -0.14344,81.70395 0,27.29421 18.20313,38.83402 18.20313,69.08811 l 0,298.59457 c 0,6.42749 5.2946,11.74885 11.74888,10.79197 4.03587,-0.5979 7.59342,-2.84008 14.7085,-8.81888 19.31239,-16.23317 53.09412,-45.70997 81.82352,-79.34222 0,0 17.33929,-20.35872 17.33929,-44.27521 l 0,-176.95023 c 0,-30.25409 18.23615,-41.7939 18.23615,-69.08811 0,-27.32434 0.0477,-67.68303 0.0477,-81.70395 0,-20.53832 -9.38714,-42.18253 -19.2526,-42.18253"
         inkscape:connector-curvature="0" />
    </g>
  </g>
</svg>
