<?xml version="1.0" encoding="UTF-8" standalone="no"?>
<!-- Created with Inkscape (http://www.inkscape.org/) -->

<svg
   xmlns:dc="http://purl.org/dc/elements/1.1/"
   xmlns:cc="http://creativecommons.org/ns#"
   xmlns:rdf="http://www.w3.org/1999/02/22-rdf-syntax-ns#"
   xmlns:svg="http://www.w3.org/2000/svg"
   xmlns="http://www.w3.org/2000/svg"
   xmlns:sodipodi="http://sodipodi.sourceforge.net/DTD/sodipodi-0.dtd"
   xmlns:inkscape="http://www.inkscape.org/namespaces/inkscape"
   width="1052.3622"
   height="744.09448"
   id="svg2"
   version="1.1"
   inkscape:version="0.48.4 r9939"
   sodipodi:docname="wallpaper.svg"
   inkscape:export-filename="/home/cveneziani/wallpaper-white.png"
   inkscape:export-xdpi="246.21127"
   inkscape:export-ydpi="246.21127">
  <defs
     id="defs4">
    <inkscape:perspective
       id="perspective6636"
       inkscape:persp3d-origin="372.04724 : 350.78739 : 1"
       inkscape:vp_z="744.09448 : 526.18109 : 1"
       inkscape:vp_y="0 : 1000 : 0"
       inkscape:vp_x="0 : 526.18109 : 1"
       sodipodi:type="inkscape:persp3d" />
  </defs>
  <sodipodi:namedview
     id="base"
     pagecolor="#ffffff"
     bordercolor="#666666"
     borderopacity="1.0"
     inkscape:pageopacity="0"
     inkscape:pageshadow="2"
     inkscape:zoom="0.70710678"
     inkscape:cx="378.97782"
     inkscape:cy="304.10683"
     inkscape:document-units="px"
     inkscape:current-layer="layer1"
     showgrid="false"
     inkscape:window-width="1680"
     inkscape:window-height="968"
     inkscape:window-x="0"
     inkscape:window-y="30"
     inkscape:window-maximized="1">
    <inkscape:grid
       type="xygrid"
       id="grid2996"
       empspacing="5"
       visible="true"
       enabled="true"
       snapvisiblegridlinesonly="true" />
  </sodipodi:namedview>
  <metadata
     id="metadata7">
    <rdf:RDF>
      <cc:Work
         rdf:about="">
        <dc:format>image/svg+xml</dc:format>
        <dc:type
           rdf:resource="http://purl.org/dc/dcmitype/StillImage" />
        <dc:title></dc:title>
      </cc:Work>
    </rdf:RDF>
  </metadata>
  <g
     inkscape:label="logo rouge"
     inkscape:groupmode="layer"
     id="layer1"
     transform="translate(0,-308.26769)"
     style="display:inline">
    <rect
       y="308.2677"
       x="0"
       height="748.69849"
       width="1054.1686"
       id="rect3801"
       style="fill:#ffffff;fill-opacity:1;stroke:none;display:inline"
       inkscape:export-filename="/home/cveneziani/wallpaper-white.png"
       inkscape:export-xdpi="246"
       inkscape:export-ydpi="246" />
    <g
       id="g3972"
       transform="matrix(0.42498846,0,0,0.42498846,356.18571,222.41983)">
      <path
         style="fill:#ee1c25;fill-opacity:1;stroke:#ee1c25;stroke-width:23.05174446;stroke-linecap:butt;stroke-linejoin:round;stroke-miterlimit:4;stroke-opacity:1;stroke-dasharray:none;display:inline"
         d="m 572.50538,582.45332 21.56317,0 L 709.07213,695.6464 408.08619,973.47413 90.927866,695.6464 214.91611,582.45332 l 141.95754,0 14.37546,25.72077 -141.95756,0 -95.23734,87.47231 274.03198,239.94211 257.8596,-239.9421 -86.25269,-87.47232 -21.56317,0 z"
         id="path3966"
         inkscape:connector-curvature="0"
         sodipodi:nodetypes="ccccccccccccccc"
         inkscape:export-xdpi="90"
         inkscape:export-ydpi="90"
         transform="translate(0,17.3622)" />
      <path
         inkscape:connector-curvature="0"
         d="m 465.25636,486.0461 c -12.58594,0 -22.86681,-10.22444 -22.86681,-22.92972 0,-12.58617 10.28087,-22.78026 22.86681,-22.78026 12.64573,0 22.92971,10.19409 22.92971,22.78026 0,12.70528 -10.28398,22.92972 -22.92971,22.92972 z m 61.85343,-114.49936 c -8.78923,0 -12.94157,20.12028 -16.32285,18.50545 C 507.28918,388.43785 481.51942,285 465.37595,285 c -16.11359,0 -41.43185,103.43785 -45.4409,105.05219 -3.3483,1.37518 -7.50373,-18.50545 -16.29297,-18.50545 -10.64274,0 -19.24948,21.40529 -19.24948,42.18254 0,14.02092 -0.14344,54.37961 -0.14344,81.70395 0,27.29421 18.20313,38.83402 18.20313,69.08811 l 0,298.59457 c 0,6.42749 5.2946,11.74885 11.74888,10.79197 4.03587,-0.5979 7.59342,-2.84008 14.7085,-8.81888 19.31239,-16.23317 53.09412,-45.70997 81.82352,-79.34222 0,0 17.33929,-20.35872 17.33929,-44.27521 l 0,-176.95023 c 0,-30.25409 18.23615,-41.7939 18.23615,-69.08811 0,-27.32434 0.0477,-67.68303 0.0477,-81.70395 0,-20.53832 -9.38714,-42.18253 -19.2526,-42.18253"
         style="fill:#ee1c25;fill-opacity:1;fill-rule:nonzero;stroke:none;display:inline"
         id="path3968"
         transform="translate(0,17.3622)" />
    </g>
    <text
       transform="translate(0,17.3622)"
       sodipodi:linespacing="125%"
       id="text3793"
       y="787"
       x="337.84906"
       style="font-size:144px;font-style:normal;font-variant:normal;font-weight:bold;font-stretch:normal;text-align:start;line-height:125%;letter-spacing:0px;word-spacing:0px;writing-mode:lr-tb;text-anchor:start;fill:#ee1c25;fill-opacity:1;stroke:none;display:inline;font-family:Amatic SC;-inkscape-font-specification:Amatic SC Bold"
       xml:space="preserve"><tspan
         y="787"
         x="337.84906"
         id="tspan3795"
         sodipodi:role="line">Ruby Nord</tspan></text>
    <flowRoot
       transform="translate(-243,412.26769)"
       style="font-size:24px;font-style:normal;font-variant:normal;font-weight:normal;font-stretch:normal;text-align:start;line-height:125%;letter-spacing:0px;word-spacing:0px;writing-mode:lr-tb;text-anchor:start;fill:#ee1c25;fill-opacity:1;stroke:none;display:inline;font-family:Andika;-inkscape-font-specification:Andika"
       id="flowRoot3797"
       xml:space="preserve"><flowRegion
         id="flowRegion3799"><rect
           style="font-size:24px;font-style:normal;font-variant:normal;font-weight:normal;font-stretch:normal;text-align:start;line-height:125%;writing-mode:lr-tb;text-anchor:start;fill:#ee1c25;fill-opacity:1;font-family:Andika;-inkscape-font-specification:Andika"
           y="590.09448"
           x="277"
           height="111"
           width="471"
           id="rect3802" /></flowRegion><flowPara
         id="flowPara3804">http://ruby-nord.org/</flowPara></flowRoot>    <flowRoot
       transform="translate(-146.76422,204.26769)"
       style="font-size:40px;font-style:normal;font-variant:normal;font-weight:normal;font-stretch:normal;text-align:start;line-height:125%;letter-spacing:0px;word-spacing:0px;writing-mode:lr-tb;text-anchor:start;fill:#ee1c25;fill-opacity:1;stroke:none;display:inline;font-family:Andika;-inkscape-font-specification:Andika"
       id="flowRoot3806"
       xml:space="preserve"><flowRegion
         id="flowRegion3808"><rect
           style="font-size:40px;font-style:normal;font-variant:normal;font-weight:normal;font-stretch:normal;text-align:start;line-height:125%;writing-mode:lr-tb;text-anchor:start;fill:#ee1c25;fill-opacity:1;font-family:Andika;-inkscape-font-specification:Andika"
           y="647.09448"
           x="348"
           height="140"
           width="647"
           id="rect3810" /></flowRegion><flowPara
         style="font-size:40px;font-style:normal;font-variant:normal;font-weight:normal;font-stretch:normal;text-align:center;line-height:125%;writing-mode:lr-tb;text-anchor:middle;fill:#ee1c25;fill-opacity:1;font-family:Andika;-inkscape-font-specification:Andika"
         id="flowPara3812">Follow @_rubynord on Twitter</flowPara><flowPara
         style="font-size:40px;font-style:normal;font-variant:normal;font-weight:normal;font-stretch:normal;text-align:center;line-height:125%;writing-mode:lr-tb;text-anchor:middle;fill:#ee1c25;fill-opacity:1;font-family:Andika;-inkscape-font-specification:Andika"
         id="flowPara3814">Join ruby-nord Slack team</flowPara></flowRoot>  </g>
  <g
     inkscape:groupmode="layer"
     id="layer2"
     inkscape:label="logo blanc"
     style="display:inline"
     transform="translate(0,-290.90549)">
    <rect
       style="fill:#ee1c25;fill-opacity:1;stroke:none"
       id="rect3017"
       width="1052.7544"
       height="748.69849"
       x="0"
       y="290.90549" />
    <g
       id="g3976"
       transform="matrix(0.42498846,0,0,0.42498846,356.18571,202.43637)">
      <path
         inkscape:export-ydpi="90"
         inkscape:export-xdpi="90"
         sodipodi:nodetypes="ccccccccccccccc"
         inkscape:connector-curvature="0"
         id="path3019-6"
         d="m 572.50538,582.45332 21.56317,0 L 709.07213,695.6464 408.08619,973.47413 90.927866,695.6464 214.91611,582.45332 l 141.95754,0 14.37546,25.72077 -141.95756,0 -95.23734,87.47231 274.03198,239.94211 257.8596,-239.9421 -86.25269,-87.47232 -21.56317,0 z"
         style="fill:#eeffff;fill-opacity:1;stroke:#eeffff;stroke-width:23.05174446;stroke-linecap:butt;stroke-linejoin:round;stroke-miterlimit:4;stroke-opacity:1;stroke-dasharray:none;display:inline" />
      <path
         id="path3865"
         style="fill:#ffffff;fill-opacity:1;fill-rule:nonzero;stroke:none"
         d="m 465.25636,486.0461 c -12.58594,0 -22.86681,-10.22444 -22.86681,-22.92972 0,-12.58617 10.28087,-22.78026 22.86681,-22.78026 12.64573,0 22.92971,10.19409 22.92971,22.78026 0,12.70528 -10.28398,22.92972 -22.92971,22.92972 z m 61.85343,-114.49936 c -8.78923,0 -12.94157,20.12028 -16.32285,18.50545 C 507.28918,388.43785 481.51942,285 465.37595,285 c -16.11359,0 -41.43185,103.43785 -45.4409,105.05219 -3.3483,1.37518 -7.50373,-18.50545 -16.29297,-18.50545 -10.64274,0 -19.24948,21.40529 -19.24948,42.18254 0,14.02092 -0.14344,54.37961 -0.14344,81.70395 0,27.29421 18.20313,38.83402 18.20313,69.08811 l 0,298.59457 c 0,6.42749 5.2946,11.74885 11.74888,10.79197 4.03587,-0.5979 7.59342,-2.84008 14.7085,-8.81888 19.31239,-16.23317 53.09412,-45.70997 81.82352,-79.34222 0,0 17.33929,-20.35872 17.33929,-44.27521 l 0,-176.95023 c 0,-30.25409 18.23615,-41.7939 18.23615,-69.08811 0,-27.32434 0.0477,-67.68303 0.0477,-81.70395 0,-20.53832 -9.38714,-42.18253 -19.2526,-42.18253"
         inkscape:connector-curvature="0" />
    </g>
    <text
       xml:space="preserve"
       style="font-size:144px;font-style:normal;font-variant:normal;font-weight:bold;font-stretch:normal;text-align:start;line-height:125%;letter-spacing:0px;word-spacing:0px;writing-mode:lr-tb;text-anchor:start;fill:#ffffff;fill-opacity:1;stroke:none;display:inline;font-family:Amatic SC;-inkscape-font-specification:Amatic SC Bold"
       x="337.84906"
       y="787"
       id="text2993"
       sodipodi:linespacing="125%"><tspan
         sodipodi:role="line"
         id="tspan2995"
         x="337.84906"
         y="787">Ruby Nord</tspan></text>
    <flowRoot
       xml:space="preserve"
       id="flowRoot2997"
       style="font-size:24px;font-style:normal;font-variant:normal;font-weight:normal;font-stretch:normal;text-align:start;line-height:125%;letter-spacing:0px;word-spacing:0px;writing-mode:lr-tb;text-anchor:start;fill:#ffffff;fill-opacity:1;stroke:none;display:inline;font-family:Andika;-inkscape-font-specification:Andika"
       transform="translate(-243,394.90549)"><flowRegion
         id="flowRegion2999"><rect
           id="rect3001"
           width="471"
           height="111"
           x="277"
           y="590.09448"
           style="font-size:24px;font-style:normal;font-variant:normal;font-weight:normal;font-stretch:normal;text-align:start;line-height:125%;writing-mode:lr-tb;text-anchor:start;fill:#ffffff;fill-opacity:1;font-family:Andika;-inkscape-font-specification:Andika" /></flowRegion><flowPara
         id="flowPara3017">http://ruby-nord.org/</flowPara></flowRoot>    <flowRoot
       xml:space="preserve"
       id="flowRoot3021"
       style="font-size:40px;font-style:normal;font-variant:normal;font-weight:normal;font-stretch:normal;text-align:start;line-height:125%;letter-spacing:0px;word-spacing:0px;writing-mode:lr-tb;text-anchor:start;fill:#ffffff;fill-opacity:1;stroke:none;display:inline;font-family:Andika;-inkscape-font-specification:Andika"
       transform="translate(-146.76422,186.90549)"><flowRegion
         id="flowRegion3023"><rect
           id="rect3025"
           width="647"
           height="140"
           x="348"
           y="647.09448"
           style="font-size:40px;font-style:normal;font-variant:normal;font-weight:normal;font-stretch:normal;text-align:start;line-height:125%;writing-mode:lr-tb;text-anchor:start;fill:#ffffff;fill-opacity:1;font-family:Andika;-inkscape-font-specification:Andika" /></flowRegion><flowPara
         id="flowPara3010"
         style="font-size:40px;font-style:normal;font-variant:normal;font-weight:normal;font-stretch:normal;text-align:center;line-height:125%;writing-mode:lr-tb;text-anchor:middle;fill:#ffffff;fill-opacity:1;font-family:Andika;-inkscape-font-specification:Andika">Follow @_rubynord on Twitter</flowPara><flowPara
         id="flowPara3012"
         style="font-size:40px;font-style:normal;font-variant:normal;font-weight:normal;font-stretch:normal;text-align:center;line-height:125%;writing-mode:lr-tb;text-anchor:middle;fill:#ffffff;fill-opacity:1;font-family:Andika;-inkscape-font-specification:Andika">Join ruby-nord Slack team</flowPara></flowRoot>  </g>
</svg>
